<svg width="34" height="34" viewBox="0 0 34 34" fill="none" xmlns="http://www.w3.org/2000/svg">
<g clip-path="url(#clip0_6289_1597)">
<path d="M2.92788 10.9491C4.18818 7.95474 6.3882 5.45147 9.19597 3.81708C11.715 2.34644 14.5973 1.61485 17.5127 1.70606L17.0855 1.27577C17.0403 1.23254 17.0042 1.18069 16.9793 1.12328C16.9545 1.06587 16.9414 1.00406 16.9408 0.941506C16.9402 0.878951 16.9522 0.816915 16.976 0.759057C16.9998 0.701199 17.0349 0.648692 17.0793 0.604634C17.1237 0.560576 17.1765 0.52586 17.2345 0.502534C17.2926 0.479208 17.3547 0.467744 17.4173 0.468819C17.4798 0.469895 17.5415 0.483487 17.5987 0.508795C17.6559 0.534103 17.7075 0.570613 17.7504 0.616171L19.0885 1.9637C19.1334 2.00877 19.1687 2.06253 19.1922 2.1217C19.2157 2.18087 19.2269 2.24421 19.2251 2.30785C19.2233 2.37149 19.2086 2.43409 19.1817 2.49184C19.1549 2.54958 19.1166 2.60126 19.0692 2.6437L17.6778 3.89264C17.6325 3.9358 17.5789 3.96943 17.5203 3.99153C17.4617 4.01364 17.3993 4.02378 17.3368 4.02135C17.2742 4.01892 17.2127 4.00396 17.156 3.97738C17.0994 3.95079 17.0486 3.91311 17.0067 3.86656C16.9648 3.82 16.9327 3.76553 16.9122 3.70635C16.8918 3.64717 16.8834 3.58449 16.8875 3.52201C16.8917 3.45954 16.9084 3.39853 16.9365 3.3426C16.9647 3.28667 17.0038 3.23696 17.0515 3.19639L17.662 2.64748C14.7426 2.50947 11.8505 3.26524 9.37186 4.81392C6.89322 6.36259 4.94594 8.63048 3.78997 11.3148C3.76596 11.3714 3.73104 11.4228 3.68719 11.4659C3.64334 11.509 3.59144 11.543 3.53443 11.5661C3.47743 11.5891 3.41644 11.6007 3.35496 11.6002C3.29347 11.5997 3.23269 11.587 3.17608 11.563C3.11948 11.539 3.06816 11.5041 3.02505 11.4603C2.98194 11.4164 2.94789 11.3645 2.92484 11.3075C2.9018 11.2505 2.8902 11.1895 2.89072 11.128C2.89125 11.0665 2.90387 11.0058 2.92788 10.9491ZM11.3251 30.186C8.69293 29.0525 6.46024 27.1571 4.91448 24.7439C3.36872 22.3306 2.58065 19.5099 2.65173 16.6449L3.20555 17.2214C3.29157 17.311 3.40964 17.3627 3.5338 17.3652C3.65796 17.3677 3.77803 17.3208 3.86761 17.2348C3.95718 17.1488 4.00891 17.0307 4.01143 16.9066C4.01394 16.7824 3.96703 16.6623 3.88102 16.5728L2.58373 15.2218C2.54 15.1764 2.48755 15.1402 2.42952 15.1154C2.37149 15.0907 2.30907 15.0779 2.246 15.0779H2.24373C2.18005 15.078 2.11706 15.0911 2.0586 15.1164C2.00014 15.1416 1.94745 15.1785 1.90373 15.2248L0.602284 16.6068C0.557103 16.6508 0.521292 16.7035 0.497004 16.7617C0.472717 16.82 0.460454 16.8825 0.460952 16.9456C0.46145 17.0087 0.4747 17.0711 0.499904 17.1289C0.525108 17.1867 0.561747 17.2389 0.607619 17.2822C0.65349 17.3255 0.707647 17.3591 0.766834 17.381C0.826022 17.4029 0.889018 17.4125 0.952038 17.4094C1.01506 17.4063 1.0768 17.3905 1.13355 17.3629C1.1903 17.3354 1.24089 17.2966 1.28228 17.249L1.71106 16.7956C1.66992 19.8187 2.52601 22.7861 4.1711 25.3227C5.81618 27.8593 8.17641 29.8512 10.9534 31.0465C11.0099 31.0709 11.0705 31.0839 11.132 31.0847C11.1935 31.0856 11.2545 31.0744 11.3117 31.0517C11.3688 31.0289 11.4209 30.9952 11.465 30.9524C11.5091 30.9095 11.5443 30.8584 11.5686 30.8019C11.5929 30.7455 11.6059 30.6848 11.6068 30.6233C11.6077 30.5618 11.5964 30.5008 11.5737 30.4437C11.551 30.3865 11.5173 30.3344 11.4744 30.2904C11.4316 30.2463 11.3805 30.2111 11.324 30.1867L11.3251 30.186ZM30.7867 22.4302C30.7303 22.4058 30.6696 22.3928 30.6081 22.3919C30.5466 22.391 30.4855 22.4022 30.4284 22.4249C30.3712 22.4476 30.3191 22.4813 30.275 22.5242C30.2309 22.567 30.1957 22.6181 30.1713 22.6746C29.0409 25.3107 27.1451 27.5466 24.7294 29.093C22.3138 30.6394 19.4895 31.425 16.6223 31.348L17.2003 30.7949C17.29 30.7091 17.342 30.5912 17.3448 30.4671C17.3475 30.3429 17.3009 30.2228 17.2151 30.1331C17.1292 30.0434 17.0113 29.9914 16.8872 29.9886C16.7631 29.9859 16.6429 30.0325 16.5532 30.1183L15.1996 31.4126C15.1534 31.4564 15.1166 31.5091 15.0915 31.5676C15.0664 31.626 15.0534 31.689 15.0534 31.7526C15.0534 31.8162 15.0664 31.8792 15.0915 31.9377C15.1166 31.9961 15.1534 32.0488 15.1996 32.0926L16.5785 33.3986C16.6223 33.445 16.6751 33.482 16.7336 33.5072C16.7922 33.5325 16.8553 33.5455 16.9191 33.5456C16.9829 33.5456 17.046 33.5326 17.1046 33.5073C17.1632 33.4821 17.216 33.4451 17.2598 33.3988C17.3036 33.3524 17.3375 33.2976 17.3593 33.2376C17.3812 33.1777 17.3906 33.1139 17.3869 33.0503C17.3832 32.9866 17.3666 32.9243 17.338 32.8673C17.3095 32.8102 17.2695 32.7596 17.2207 32.7186L16.7674 32.2891C16.8452 32.2891 16.9234 32.2917 17.0009 32.2917C19.9876 32.2924 22.9088 31.4168 25.4027 29.7733C27.8965 28.1299 29.8534 25.7908 31.0308 23.046C31.08 22.9319 31.082 22.803 31.0363 22.6876C30.9905 22.5721 30.9007 22.4795 30.7867 22.4302ZM33.3858 17.1345C33.2985 17.0462 33.1798 16.9961 33.0556 16.9953C32.9314 16.9946 32.812 17.0431 32.7236 17.1304L32.2839 17.5652C32.4172 14.7056 31.7442 11.866 30.3417 9.37042C28.7897 6.59871 26.393 4.39521 23.5009 3.08117C23.388 3.02952 23.2592 3.02484 23.1428 3.06817C23.0264 3.11149 22.9321 3.19927 22.8804 3.31218C22.8288 3.4251 22.8241 3.55391 22.8674 3.67028C22.9107 3.78664 22.9985 3.88103 23.1114 3.93268C25.7059 5.13432 27.8784 7.08945 29.3458 9.5434C30.8133 11.9973 31.5077 14.8363 31.3387 17.6906L30.8018 17.0907C30.7613 17.0432 30.7116 17.0044 30.6558 16.9764C30.6 16.9484 30.5392 16.9318 30.4769 16.9276C30.4146 16.9235 30.3522 16.9318 30.2931 16.9522C30.2341 16.9725 30.1797 17.0044 30.1332 17.0461C30.0867 17.0877 30.049 17.1382 30.0223 17.1947C29.9956 17.2511 29.9805 17.3123 29.9778 17.3747C29.975 17.437 29.9848 17.4993 30.0065 17.5579C30.0282 17.6164 30.0614 17.67 30.1041 17.7155L31.3534 19.111C31.3956 19.1583 31.4471 19.1965 31.5045 19.2233C31.562 19.25 31.6244 19.2648 31.6877 19.2667H31.7021C31.8254 19.2667 31.9438 19.2181 32.0315 19.1314L33.3821 17.7964C33.4702 17.709 33.5201 17.5903 33.5208 17.4662C33.5216 17.3421 33.473 17.2228 33.3858 17.1345ZM16.5823 11.6775V12.6831C16.3569 12.7197 16.1356 12.7781 15.9215 12.8577C15.4581 13.0089 15.0516 13.2972 14.7557 13.6846C14.4598 14.0719 14.2886 14.54 14.2646 15.0269C14.2506 15.9524 14.8611 16.756 15.8981 17.1761L15.9125 17.1817C16.3165 17.3187 16.7337 17.4132 17.1573 17.4635C17.8373 17.5659 18.3782 17.6468 18.8633 18.2293C19.0114 18.3888 19.1121 18.5864 19.1541 18.7999C19.1962 19.0135 19.1779 19.2345 19.1013 19.4382C18.9689 19.7142 18.7648 19.9497 18.5104 20.12C18.2559 20.2903 17.9605 20.3892 17.6548 20.4064C16.4538 20.5632 15.1052 20.1314 14.8026 18.8152C14.7888 18.7553 14.7634 18.6987 14.7277 18.6486C14.6921 18.5985 14.6469 18.5559 14.5948 18.5233C14.5427 18.4906 14.4846 18.4686 14.424 18.4583C14.3634 18.4481 14.3013 18.4499 14.2414 18.4637C14.1815 18.4775 14.1248 18.5029 14.0747 18.5386C14.0246 18.5742 13.982 18.6194 13.9494 18.6715C13.9168 18.7236 13.8947 18.7817 13.8845 18.8423C13.8743 18.9029 13.8761 18.965 13.8899 19.0249C14.2151 20.4397 15.3632 21.1492 16.5823 21.3263V22.3252C16.5805 22.3878 16.5913 22.4501 16.614 22.5085C16.6368 22.5668 16.671 22.6201 16.7146 22.665C16.7583 22.7099 16.8105 22.7456 16.8682 22.77C16.9259 22.7944 16.9879 22.8069 17.0505 22.8069C17.1132 22.8069 17.1752 22.7944 17.2329 22.77C17.2906 22.7456 17.3428 22.7099 17.3864 22.665C17.4301 22.6201 17.4643 22.5668 17.487 22.5085C17.5098 22.4501 17.5206 22.3878 17.5188 22.3252V21.3607C17.6052 21.3547 17.6908 21.3462 17.7757 21.3354C18.2482 21.2987 18.702 21.1348 19.0889 20.861C19.4758 20.5872 19.7814 20.2139 19.9732 19.7805C20.1124 19.4208 20.1496 19.0298 20.0807 18.6504C20.0119 18.271 19.8396 17.9179 19.583 17.6301C18.8697 16.7733 18.0341 16.6479 17.2959 16.5376C16.9377 16.4964 16.5846 16.4185 16.2423 16.3053C15.5721 16.0314 15.1924 15.5709 15.2004 15.0409C15.2255 14.744 15.3385 14.4614 15.5249 14.2291C15.7112 13.9967 15.9626 13.825 16.2468 13.736C17.5022 13.2702 18.6759 13.8286 19.167 15.1247C19.211 15.2409 19.2993 15.3347 19.4125 15.3858C19.5258 15.4368 19.6546 15.4407 19.7707 15.3967C19.8869 15.3527 19.9807 15.2644 20.0318 15.1512C20.0828 15.038 20.0867 14.9092 20.0427 14.793C19.8555 14.2428 19.5214 13.7542 19.0764 13.3802C18.6315 13.0063 18.0927 12.7612 17.5184 12.6714V11.6775C17.5202 11.6149 17.5094 11.5526 17.4867 11.4942C17.4639 11.4358 17.4297 11.3826 17.3861 11.3377C17.3424 11.2928 17.2902 11.2571 17.2325 11.2327C17.1748 11.2083 17.1128 11.1958 17.0502 11.1958C16.9875 11.1958 16.9255 11.2083 16.8678 11.2327C16.8101 11.2571 16.7579 11.2928 16.7142 11.3377C16.6706 11.3826 16.6364 11.4358 16.6137 11.4942C16.5909 11.5526 16.5801 11.6149 16.5819 11.6775H16.5823ZM16.9978 9.14073C18.5526 9.14073 20.0724 9.60176 21.3651 10.4655C22.6578 11.3293 23.6653 12.557 24.2603 13.9933C24.8552 15.4297 25.0109 17.0102 24.7076 18.5351C24.4043 20.0599 23.6556 21.4606 22.5563 22.56C21.4569 23.6593 20.0562 24.408 18.5314 24.7113C17.0066 25.0146 15.426 24.8589 13.9896 24.264C12.5533 23.669 11.3256 22.6615 10.4618 21.3688C9.59807 20.0761 9.13704 18.5562 9.13704 17.0015C9.13934 14.9174 9.96827 12.9193 11.442 11.4456C12.9156 9.97195 14.9137 9.14303 16.9978 9.14073ZM16.9978 10.0772C15.6283 10.0772 14.2896 10.4833 13.1509 11.2442C12.0122 12.005 11.1247 13.0865 10.6006 14.3517C10.0765 15.617 9.93942 17.0092 10.2066 18.3524C10.4738 19.6956 11.1332 20.9294 12.1016 21.8977C13.07 22.8661 14.3038 23.5256 15.647 23.7928C16.9902 24.0599 18.3824 23.9228 19.6476 23.3987C20.9129 22.8747 21.9943 21.9872 22.7552 20.8485C23.516 19.7098 23.9221 18.371 23.9221 17.0015C23.9201 15.1657 23.19 13.4056 21.8918 12.1075C20.5937 10.8094 18.8337 10.0792 16.9978 10.0772ZM16.9978 6.62624C19.0499 6.62624 21.0558 7.23474 22.762 8.37479C24.4682 9.51484 25.7981 11.1352 26.5834 13.0311C27.3686 14.9269 27.5741 17.013 27.1738 19.0256C26.7734 21.0383 25.7853 22.887 24.3343 24.338C22.8833 25.789 21.0346 26.7771 19.022 27.1775C17.0093 27.5778 14.9232 27.3723 13.0274 26.587C11.1316 25.8018 9.51115 24.4719 8.3711 22.7657C7.23105 21.0595 6.62255 19.0536 6.62255 17.0015C6.62565 14.2508 7.71975 11.6136 9.66483 9.66851C11.6099 7.72344 14.2471 6.62934 16.9978 6.62624ZM16.9978 7.56275C15.131 7.56275 13.3061 8.11632 11.7539 9.15347C10.2017 10.1906 8.99194 11.6648 8.27755 13.3895C7.56315 15.1142 7.37623 17.012 7.74042 18.8429C8.10462 20.6739 9.00358 22.3557 10.3236 23.6758C11.6437 24.9958 13.3255 25.8947 15.1564 26.2589C16.9874 26.6231 18.8852 26.4362 20.6099 25.7218C22.3346 25.0074 23.8088 23.7976 24.8459 22.2454C25.883 20.6932 26.4366 18.8683 26.4366 17.0015C26.4338 14.4991 25.4385 12.0999 23.669 10.3304C21.8995 8.56089 19.5003 7.56555 16.9978 7.56275Z" fill="black" stroke="black" stroke-width="0.5"/>
<ellipse cx="17.2812" cy="17.0254" rx="8.51562" ry="8.25586" fill="white"/>
<path d="M19.9602 14.9609L19.6491 16.1456H13.9347L14.2415 14.9609H19.9602ZM16.9901 21.5234L14.0753 18.0547L14.0795 16.9893H15.5199C15.8409 16.9893 16.1094 16.9297 16.3253 16.8104C16.5412 16.6911 16.7031 16.5291 16.8111 16.3246C16.919 16.12 16.9744 15.8871 16.9773 15.6257C16.9744 15.2337 16.8594 14.9141 16.6321 14.6669C16.4077 14.4169 16.0369 14.2919 15.5199 14.2919H13.9347L14.2841 12.7962H15.5199C16.2443 12.7962 16.848 12.9055 17.331 13.1243C17.8168 13.3402 18.1804 13.6484 18.4219 14.049C18.6662 14.4496 18.7898 14.9268 18.7926 15.4808C18.7898 15.9723 18.7074 16.4013 18.5455 16.7678C18.3864 17.1342 18.1349 17.4396 17.7912 17.6839C17.4503 17.9283 17.0057 18.1101 16.4574 18.2294L16.3892 18.255L18.9972 21.4467V21.5234H16.9901ZM19.9688 12.7962L19.6491 13.9979H14.9446L15.2642 12.7962H19.9688Z" fill="black"/>
</g>
<defs>
<clipPath id="clip0_6289_1597">
<rect width="34" height="34" fill="white"/>
</clipPath>
</defs>
</svg>
