<svg width="34" height="34" viewBox="0 0 34 34" fill="none" xmlns="http://www.w3.org/2000/svg">
<g clip-path="url(#clip0_6289_1566)">
<path d="M17.3113 32.4758C16.5089 32.4758 15.7267 32.3213 14.9858 32.0176L10.1918 30.0547H8.86705C8.57384 30.0547 8.33594 29.8168 8.33594 29.5236C8.33594 29.2303 8.57384 28.9924 8.86705 28.9924H10.2962C10.3656 28.9924 10.4341 29.0056 10.4973 29.0319L15.3888 31.0353C16.0015 31.2863 16.6485 31.4136 17.3113 31.4136C17.6203 31.4136 17.9337 31.3846 18.241 31.3276C18.5447 31.2705 18.8476 31.1854 19.139 31.073C19.5499 30.915 20.045 30.728 20.6183 30.5129C23.3739 29.4761 27.5376 27.9083 28.9932 26.9294C29.4312 26.6345 29.4909 26.0972 29.296 25.7478C29.0458 25.3001 28.2944 25.0411 26.9389 25.66C26.9302 25.6644 26.9214 25.6679 26.9117 25.6714L20.6253 28.1304C20.3523 28.2366 20.0441 28.1023 19.937 27.8293C19.8299 27.5562 19.9651 27.2481 20.2381 27.141L26.5114 24.6865C28.5156 23.777 29.7429 24.3696 30.2231 25.2281C30.7138 26.106 30.4346 27.2393 29.5866 27.8099C28.0284 28.8581 23.7944 30.4515 20.9931 31.5058C20.4225 31.7209 19.9291 31.9061 19.5218 32.0632C19.1689 32.1993 18.8037 32.3029 18.4359 32.3714C18.0636 32.4407 17.6853 32.4758 17.3113 32.4758Z" fill="black"/>
<path d="M20.038 28.1644C19.793 28.1644 19.5727 27.9941 19.5192 27.7448C19.4577 27.4577 19.6403 27.175 19.9274 27.1136C20.3856 27.0153 20.7174 26.6106 20.7174 26.1497C20.7174 25.9048 20.6235 25.6932 20.4471 25.5369C20.2618 25.3745 20.002 25.2841 19.7149 25.2841L15.8347 25.2902H15.8338C15.7443 25.2902 15.6565 25.2674 15.5784 25.2244L12.2109 23.3747H8.86705C8.57384 23.3747 8.33594 23.1368 8.33594 22.8436C8.33594 22.5504 8.57384 22.3125 8.86705 22.3125H12.3469C12.4365 22.3125 12.5243 22.3353 12.6024 22.3783L15.9699 24.2271L19.714 24.221C20.261 24.221 20.7701 24.4045 21.1494 24.7381C21.5567 25.0962 21.7806 25.5975 21.7806 26.1479C21.7806 27.1057 21.0949 27.9476 20.1503 28.1504C20.1126 28.16 20.0748 28.1644 20.038 28.1644Z" fill="black"/>
<path d="M20.4314 28.1677H14.4452C14.152 28.1677 13.9141 27.9298 13.9141 27.6366C13.9141 27.3434 14.152 27.1055 14.4452 27.1055H20.4314C20.7246 27.1055 20.9625 27.3434 20.9625 27.6366C20.9625 27.9298 20.7246 28.1677 20.4314 28.1677Z" fill="black"/>
<path d="M8.8659 31.9949H4.07799C3.78478 31.9949 3.54688 31.757 3.54688 31.4638V21.3788C3.54688 21.2374 3.60306 21.1014 3.70401 21.0022C3.80409 20.9021 3.94104 20.8477 4.0815 20.8477L8.86942 20.8784C9.16175 20.8801 9.39702 21.1172 9.39702 21.4095V31.4638C9.39702 31.757 9.15911 31.9949 8.8659 31.9949ZM4.6091 30.9318H8.33391V21.9371L4.6091 21.9134V30.9318Z" fill="black"/>
<path d="M19.5062 19.4074C15.3933 19.4074 12.0469 16.0943 12.0469 12.021C12.0469 7.94766 15.3933 4.63281 19.5062 4.63281C23.6207 4.63281 26.9681 7.94678 26.9681 12.021C26.9681 16.0943 23.6207 19.4074 19.5062 19.4074ZM19.5062 5.69592C15.9789 5.69592 13.1091 8.5332 13.1091 12.021C13.1091 15.5079 15.9789 18.3443 19.5062 18.3443C23.0343 18.3443 25.905 15.5079 25.905 12.021C25.905 8.53408 23.0343 5.69592 19.5062 5.69592Z" fill="black"/>
<path d="M19.5022 17.5241C16.4376 17.5241 13.9453 15.0556 13.9453 12.0208C13.9453 8.98508 16.4385 6.51562 19.5022 6.51562C22.5669 6.51562 25.0609 8.98508 25.0609 12.0208C25.0609 15.0547 22.5678 17.5241 19.5022 17.5241ZM19.5022 7.57785C17.024 7.57785 15.0075 9.57062 15.0075 12.0208C15.0075 14.47 17.024 16.4619 19.5022 16.4619C21.9814 16.4619 23.9978 14.47 23.9978 12.0208C23.9987 9.57062 21.9814 7.57785 19.5022 7.57785Z" fill="black"/>
<path d="M19.8405 14.2584H18.1014C17.8082 14.2584 17.5703 14.0205 17.5703 13.7273C17.5703 13.4341 17.8082 13.1962 18.1014 13.1962H19.8405C20.0117 13.1962 20.1513 13.0566 20.1513 12.8854V12.838C20.1513 12.6668 20.0117 12.5272 19.8405 12.5272H18.9626C18.205 12.5272 17.5896 11.911 17.5896 11.1542C17.5896 10.3975 18.2059 9.78125 18.9626 9.78125H20.6069C20.9001 9.78125 21.138 10.0192 21.138 10.3124C21.138 10.6056 20.9001 10.8435 20.6069 10.8435H18.9626C18.7914 10.8435 18.6519 10.9831 18.6519 11.1542C18.6519 11.3254 18.7914 11.465 18.9626 11.465H19.8405C20.5981 11.465 21.2135 12.0813 21.2135 12.838V12.8854C21.2144 13.643 20.5981 14.2584 19.8405 14.2584Z" fill="black"/>
<path d="M19.3983 10.8366C19.1042 10.8366 18.8672 10.5987 18.8672 10.3046L18.8681 8.78502C18.8681 8.49181 19.106 8.25391 19.3992 8.25391C19.6924 8.25391 19.9303 8.49181 19.9303 8.7859L19.9294 10.3055C19.9294 10.5987 19.6915 10.8366 19.3983 10.8366Z" fill="black"/>
<path d="M19.4061 15.6806C19.1129 15.6806 18.875 15.4427 18.875 15.1495V13.7264C18.875 13.4332 19.1129 13.1953 19.4061 13.1953C19.6993 13.1953 19.9372 13.4332 19.9372 13.7264V15.1495C19.9372 15.4427 19.6993 15.6806 19.4061 15.6806Z" fill="black"/>
<path d="M19.5082 22.5089C19.215 22.5089 18.9771 22.271 18.9771 21.9778C18.9771 21.6846 19.215 21.4467 19.5082 21.4467C24.7658 21.4467 29.0428 17.2188 29.0428 12.0218C29.0428 6.82307 24.7658 2.59435 19.5082 2.59435C14.2524 2.59435 9.97629 6.82307 9.97629 12.0218C9.97629 12.315 9.73838 12.5529 9.44517 12.5529C9.15197 12.5529 8.91406 12.315 8.91406 12.0218C8.91406 6.23665 13.666 1.53125 19.5082 1.53125C25.3513 1.53125 30.105 6.23665 30.105 12.0209C30.105 17.8035 25.3513 22.5089 19.5082 22.5089Z" fill="black"/>
<path d="M9.44093 12.5513C9.31363 12.5513 9.18634 12.5057 9.08451 12.4135L7.2998 10.7965C7.08208 10.5998 7.0654 10.2636 7.26292 10.0459C7.45957 9.82818 7.79579 9.8115 8.01351 10.009L9.79822 11.6261C10.0159 11.8227 10.0326 12.1589 9.83509 12.3766C9.72975 12.4925 9.5849 12.5513 9.44093 12.5513Z" fill="black"/>
<path d="M9.43768 12.5507C9.29283 12.5507 9.14886 12.4919 9.04352 12.376C8.84688 12.1583 8.86355 11.8229 9.08039 11.6254L10.8651 10.0084C11.0828 9.81172 11.4182 9.8284 11.6157 10.0452C11.8123 10.2629 11.7956 10.5983 11.5788 10.7958L9.7941 12.4129C9.69227 12.5059 9.56497 12.5507 9.43768 12.5507Z" fill="black"/>
<ellipse cx="19.4102" cy="12.0273" rx="5.65234" ry="5.69531" fill="white"/>
<path d="M21.7749 10.7578L21.5415 11.6463H17.2557L17.4858 10.7578H21.7749ZM19.5472 15.6797L17.3612 13.0781L17.3643 12.2791H18.4446C18.6854 12.2791 18.8867 12.2344 19.0487 12.1449C19.2106 12.0554 19.332 11.9339 19.413 11.7805C19.494 11.6271 19.5355 11.4524 19.5376 11.2564C19.5355 10.9624 19.4492 10.7227 19.2788 10.5373C19.1104 10.3498 18.8324 10.256 18.4446 10.256H17.2557L17.5178 9.13423H18.4446C18.9879 9.13423 19.4407 9.21626 19.8029 9.38033C20.1673 9.54226 20.44 9.77344 20.6211 10.0739C20.8043 10.3743 20.897 10.7322 20.8991 11.1477C20.897 11.5163 20.8352 11.8381 20.7138 12.1129C20.5945 12.3878 20.4059 12.6168 20.1481 12.8001C19.8924 12.9833 19.5589 13.1197 19.1477 13.2092L19.0966 13.2283L21.0526 15.6222V15.6797H19.5472ZM21.7812 9.13423L21.5415 10.0355H18.0131L18.2528 9.13423H21.7812Z" fill="black"/>
</g>
<defs>
<clipPath id="clip0_6289_1566">
<rect width="34" height="34" fill="white"/>
</clipPath>
</defs>
</svg>
