<svg width="34" height="34" viewBox="0 0 34 34" fill="none" xmlns="http://www.w3.org/2000/svg">
<g clip-path="url(#clip0_6289_1551)">
<path d="M3.39875 19.0358C3.5791 19.0358 3.75206 18.9642 3.87958 18.8367C4.00711 18.7091 4.07875 18.5362 4.07875 18.3558V12.9158C4.07875 11.6534 4.58025 10.4427 5.47292 9.54999C6.3656 8.65732 7.57632 8.15582 8.83875 8.15582H28.9532L26.0427 11.0798C25.9777 11.1409 25.9259 11.2146 25.8904 11.2965C25.855 11.3783 25.8367 11.4666 25.8367 11.5558C25.8367 11.645 25.855 11.7333 25.8904 11.8152C25.9259 11.897 25.9777 11.9708 26.0427 12.0318C26.1038 12.0969 26.1775 12.1487 26.2594 12.1842C26.3413 12.2196 26.4295 12.2379 26.5188 12.2379C26.608 12.2379 26.6962 12.2196 26.7781 12.1842C26.86 12.1487 26.9337 12.0969 26.9948 12.0318L31.0748 7.95182C31.1398 7.89077 31.1916 7.81704 31.2271 7.73517C31.2625 7.6533 31.2808 7.56503 31.2808 7.47582C31.2808 7.38661 31.2625 7.29835 31.2271 7.21648C31.1916 7.13461 31.1398 7.06087 31.0748 6.99982L26.9948 2.91982C26.8685 2.79358 26.6973 2.72266 26.5188 2.72266C26.3402 2.72266 26.169 2.79358 26.0427 2.91982C25.9165 3.04607 25.8456 3.21729 25.8456 3.39582C25.8456 3.57436 25.9165 3.74558 26.0427 3.87182L28.9532 6.79582H8.83875C7.21673 6.79941 5.66217 7.44535 4.51522 8.5923C3.36828 9.73924 2.72234 11.2938 2.71875 12.9158V18.3558C2.71875 18.5362 2.79039 18.7091 2.91792 18.8367C3.04544 18.9642 3.2184 19.0358 3.39875 19.0358Z" fill="black" stroke="black" stroke-width="0.4"/>
<path d="M30.6008 14.957C30.4205 14.957 30.2475 15.0287 30.12 15.1562C29.9925 15.2837 29.9208 15.4567 29.9208 15.637V21.077C29.9208 22.3395 29.4193 23.5502 28.5266 24.4429C27.634 25.3355 26.4232 25.837 25.1608 25.837H5.04642L7.95682 22.913C8.08306 22.7868 8.15398 22.6156 8.15398 22.437C8.15398 22.2585 8.08306 22.0873 7.95682 21.961C7.83057 21.8348 7.65935 21.7639 7.48082 21.7639C7.30228 21.7639 7.13106 21.8348 7.00482 21.961L2.92482 26.041C2.85977 26.1021 2.80792 26.1758 2.77248 26.2577C2.73704 26.3396 2.71875 26.4278 2.71875 26.517C2.71875 26.6062 2.73704 26.6945 2.77248 26.7764C2.80792 26.8582 2.85977 26.932 2.92482 26.993L7.00482 31.073C7.06587 31.1381 7.1396 31.1899 7.22147 31.2254C7.30334 31.2608 7.3916 31.2791 7.48082 31.2791C7.57003 31.2791 7.65829 31.2608 7.74016 31.2254C7.82203 31.1899 7.89576 31.1381 7.95682 31.073C8.02187 31.012 8.07371 30.9382 8.10915 30.8564C8.1446 30.7745 8.16288 30.6862 8.16288 30.597C8.16288 30.5078 8.1446 30.4196 8.10915 30.3377C8.07371 30.2558 8.02187 30.1821 7.95682 30.121L5.04642 27.197H25.1608C26.7828 27.1934 28.3374 26.5475 29.4843 25.4006C30.6313 24.2536 31.2772 22.6991 31.2808 21.077V15.637C31.2808 15.4567 31.2092 15.2837 31.0816 15.1562C30.9541 15.0287 30.7812 14.957 30.6008 14.957Z" fill="black" stroke="black" stroke-width="0.4"/>
<path d="M20.4602 15.4375L20.1491 16.6222H14.4347L14.7415 15.4375H20.4602ZM17.4901 22L14.5753 18.5312L14.5795 17.4659H16.0199C16.3409 17.4659 16.6094 17.4062 16.8253 17.2869C17.0412 17.1676 17.2031 17.0057 17.3111 16.8011C17.419 16.5966 17.4744 16.3636 17.4773 16.1023C17.4744 15.7102 17.3594 15.3906 17.1321 15.1435C16.9077 14.8935 16.5369 14.7685 16.0199 14.7685H14.4347L14.7841 13.2727H16.0199C16.7443 13.2727 17.348 13.3821 17.831 13.6009C18.3168 13.8168 18.6804 14.125 18.9219 14.5256C19.1662 14.9261 19.2898 15.4034 19.2926 15.9574C19.2898 16.4489 19.2074 16.8778 19.0455 17.2443C18.8864 17.6108 18.6349 17.9162 18.2912 18.1605C17.9503 18.4048 17.5057 18.5866 16.9574 18.706L16.8892 18.7315L19.4972 21.9233V22H17.4901ZM20.4688 13.2727L20.1491 14.4744H15.4446L15.7642 13.2727H20.4688Z" fill="black"/>
</g>
<defs>
<clipPath id="clip0_6289_1551">
<rect width="34" height="34" fill="white"/>
</clipPath>
</defs>
</svg>
